<svg width="170" height="170" viewBox="0 0 170 170" fill="none" xmlns="http://www.w3.org/2000/svg">
<circle cx="85" cy="85" r="85" fill="#37AC66"/>
<circle cx="38.7142" cy="109.143" r="6.42857" transform="rotate(-19.3845 38.7142 109.143)" fill="#FCFCFA"/>
<circle cx="55.1637" cy="105.242" r="6.42857" transform="rotate(-8.43366 55.1637 105.242)" fill="#FCFCFA"/>
<circle cx="72.5476" cy="103.985" r="6.42857" transform="rotate(0.280656 72.5476 103.985)" fill="#FCFCFA"/>
<circle cx="89.4019" cy="105.424" r="6.42857" transform="rotate(9.84907 89.4019 105.424)" fill="#FCFCFA"/>
<circle cx="106.241" cy="110.071" r="6.42857" transform="rotate(21.4545 106.241 110.071)" fill="#FCFCFA"/>
<circle cx="121.22" cy="117.999" r="6.42857" transform="rotate(34.5614 121.22 117.999)" fill="#FCFCFA"/>
<circle cx="35.3824" cy="85.1784" r="7.1335" transform="rotate(-19.3845 35.3824 85.1784)" fill="#FCFCFA"/>
<circle cx="53.6358" cy="80.8492" r="7.1335" transform="rotate(-8.43366 53.6358 80.8492)" fill="#FCFCFA"/>
<circle cx="72.9259" cy="79.454" r="7.1335" transform="rotate(0.280656 72.9259 79.454)" fill="#FCFCFA"/>
<circle cx="91.6285" cy="81.0516" r="7.1335" transform="rotate(9.84907 91.6285 81.0516)" fill="#FCFCFA"/>
<circle cx="110.314" cy="86.2071" r="7.1335" transform="rotate(21.4545 110.314 86.2071)" fill="#FCFCFA"/>
<circle cx="126.936" cy="95.0053" r="7.1335" transform="rotate(34.5614 126.936 95.0053)" fill="#FCFCFA"/>
<circle cx="32.3661" cy="58.6915" r="8.12887" transform="rotate(-19.3845 32.3661 58.6915)" fill="#FCFCFA"/>
<circle cx="53.1663" cy="53.7587" r="8.12887" transform="rotate(-8.43366 53.1663 53.7587)" fill="#FCFCFA"/>
<circle cx="75.148" cy="52.1686" r="8.12887" transform="rotate(0.280656 75.148 52.1686)" fill="#FCFCFA"/>
<circle cx="96.4604" cy="53.9891" r="8.12887" transform="rotate(9.84907 96.4604 53.9891)" fill="#FCFCFA"/>
<circle cx="117.753" cy="59.864" r="8.12887" transform="rotate(21.4545 117.753 59.864)" fill="#FCFCFA"/>
<circle cx="136.694" cy="69.8897" r="8.12887" transform="rotate(34.5614 136.694 69.8897)" fill="#FCFCFA"/>
</svg>
